<svg xmlns="http://www.w3.org/2000/svg" width="13.182" height="13.71" viewBox="0 0 13.182 13.71">
  <g id="Group_2" data-name="Group 2" transform="translate(-1129 -685.316)">
    <path id="Path_6" data-name="Path 6" d="M18.82,15.667H15.467v3.487H13.83V15.667H10.477v-1.7H13.83V10.477h1.638v3.487H18.82Z" transform="translate(1120.943 677.356)" fill="#fff"/>
    <path id="Path_7" data-name="Path 7" d="M9.966,4.759a5.138,5.138,0,0,1,3.72,1.6,5.63,5.63,0,0,1,0,7.738,5.121,5.121,0,0,1-7.44,0,5.63,5.63,0,0,1,0-7.738,5.138,5.138,0,0,1,3.72-1.6m0-1.384A6.726,6.726,0,0,0,3.375,10.23a6.726,6.726,0,0,0,6.591,6.855,6.726,6.726,0,0,0,6.591-6.855A6.726,6.726,0,0,0,9.966,3.375Z" transform="translate(1125.625 681.941)" fill="#fff"/>
  </g>
</svg>
